<svg width="64" height="63" viewBox="0 0 64 63" fill="none" xmlns="http://www.w3.org/2000/svg">
<path d="M31.9999 36.75C37.8826 36.75 42.6666 32.0408 42.6666 26.25C42.6666 20.4592 37.8826 15.75 31.9999 15.75C26.1173 15.75 21.3333 20.4592 21.3333 26.25C21.3333 32.0408 26.1173 36.75 31.9999 36.75ZM31.9999 21C34.9413 21 37.3333 23.3546 37.3333 26.25C37.3333 29.1454 34.9413 31.5 31.9999 31.5C29.0586 31.5 26.6666 29.1454 26.6666 26.25C26.6666 23.3546 29.0586 21 31.9999 21Z" fill="#49A09D"/>
<path d="M30.4534 57.2617C30.9047 57.579 31.4455 57.7496 32.0001 57.7496C32.5547 57.7496 33.0954 57.579 33.5467 57.2617C34.3574 56.6974 53.4107 43.155 53.3334 26.25C53.3334 14.6711 43.7627 5.25 32.0001 5.25C20.2374 5.25 10.6667 14.6711 10.6667 26.2369C10.5894 43.155 29.6427 56.6974 30.4534 57.2617ZM32.0001 10.5C40.8241 10.5 48.0001 17.5639 48.0001 26.2631C48.0561 37.9129 36.2987 48.3735 32.0001 51.8044C27.7041 48.3709 15.9441 37.9076 16.0001 26.25C16.0001 17.5639 23.1761 10.5 32.0001 10.5Z" fill="#49A09D"/>
</svg>
