<svg width="64" height="63" viewBox="0 0 64 63" fill="none" xmlns="http://www.w3.org/2000/svg">
<path d="M47.2187 32.2692C46.9712 32.0252 46.6773 31.8316 46.3538 31.6996C46.0303 31.5675 45.6835 31.4995 45.3333 31.4995C44.9831 31.4995 44.6363 31.5675 44.3128 31.6996C43.9893 31.8316 43.6954 32.0252 43.448 32.2692L39.1973 36.4534C37.2267 35.8759 33.5493 34.5634 31.2187 32.2692C28.888 29.9749 27.5547 26.355 26.968 24.4152L31.2187 20.2309C31.4665 19.9873 31.6631 19.6981 31.7973 19.3796C31.9315 19.0612 32.0005 18.7198 32.0005 18.375C32.0005 18.0303 31.9315 17.6889 31.7973 17.3705C31.6631 17.052 31.4665 16.7627 31.2187 16.5192L20.552 6.01916C20.3046 5.77518 20.0107 5.58162 19.6872 5.44955C19.3637 5.31749 19.0169 5.24951 18.6667 5.24951C18.3164 5.24951 17.9697 5.31749 17.6461 5.44955C17.3226 5.58162 17.0288 5.77518 16.7813 6.01916L9.54933 13.1382C8.536 14.1357 7.96533 15.5059 7.98666 16.905C8.04799 20.643 9.05333 33.6263 19.448 43.8585C29.8427 54.0908 43.032 55.0778 46.832 55.1408H46.9067C48.3147 55.1408 49.6453 54.5948 50.6533 53.6025L57.8853 46.4835C58.1332 46.24 58.3298 45.9507 58.464 45.6322C58.5981 45.3138 58.6672 44.9724 58.6672 44.6277C58.6672 44.2829 58.5981 43.9415 58.464 43.6231C58.3298 43.3046 58.1332 43.0154 57.8853 42.7718L47.2187 32.2692ZM46.88 49.8882C43.552 49.833 32.1653 48.9537 23.2187 40.1442C14.2427 31.3084 13.3733 20.0603 13.32 16.8499L18.6667 11.5868L25.5627 18.375L22.1147 21.7692C21.8012 22.0775 21.5708 22.4578 21.4441 22.8758C21.3175 23.2938 21.2987 23.7362 21.3893 24.1632C21.4533 24.465 23.0187 31.6234 27.4453 35.9809C31.872 40.3384 39.144 41.8793 39.4507 41.9423C39.8841 42.0341 40.3341 42.017 40.7591 41.8927C41.1841 41.7684 41.5704 41.5408 41.8827 41.2309L45.3333 37.8368L52.2293 44.625L46.88 49.8882Z" fill="#49A09D"/>
</svg>
