<svg width="64" height="63" viewBox="0 0 64 63" fill="none" xmlns="http://www.w3.org/2000/svg">
<path fill-rule="evenodd" clip-rule="evenodd" d="M49.0747 14.7866C46.8569 12.5892 44.2183 10.8468 41.3116 9.66034C38.4049 8.47393 35.288 7.86708 32.1413 7.87495C18.9467 7.87495 8.20533 18.4458 8.2 31.4396C8.2 35.5923 9.30133 39.6453 11.3947 43.2206L8 55.4295L20.6907 52.1508C24.201 54.0319 28.1339 55.0182 32.1307 55.02H32.1413C45.3333 55.02 56.0747 44.4491 56.08 31.4553C56.0891 28.3591 55.4746 25.2918 54.2722 22.4307C53.0698 19.5697 51.3032 16.9716 49.0747 14.7866ZM32.1413 51.0431H32.1333C28.5694 51.0434 25.071 50.0996 22.0053 48.3105L21.28 47.8852L13.7493 49.8303L15.7573 42.6037L15.2853 41.8635C13.2928 38.7408 12.238 35.1271 12.2427 31.4396C12.248 20.6403 21.1733 11.8545 32.1493 11.8545C34.7633 11.8487 37.3525 12.3534 39.7671 13.3393C42.1816 14.3252 44.3735 15.7726 46.216 17.598C48.0683 19.4146 49.5365 21.5746 50.5357 23.9531C51.5349 26.3316 52.0453 28.8815 52.0373 31.4553C52.032 42.2546 43.1067 51.0431 32.1413 51.0431ZM43.056 36.372C42.456 36.0753 39.5173 34.6526 38.968 34.4557C38.4213 34.2588 38.024 34.1617 37.624 34.7497C37.224 35.3377 36.0773 36.6633 35.728 37.0571C35.3787 37.4508 35.0293 37.4981 34.432 37.2041C33.8347 36.9101 31.9067 36.288 29.6213 34.2825C27.8427 32.7206 26.6427 30.7938 26.2933 30.2032C25.944 29.6126 26.256 29.295 26.5573 29.001C26.8267 28.7385 27.1547 28.3132 27.4533 27.9693C27.752 27.6255 27.8507 27.3813 28.0507 26.9876C28.2507 26.5938 28.152 26.25 28 25.956C27.8507 25.6593 26.6533 22.7613 26.1547 21.5827C25.672 20.4408 25.1787 20.5931 24.8107 20.5773C24.4295 20.562 24.0481 20.555 23.6667 20.5563C23.3633 20.5639 23.0649 20.6332 22.79 20.7596C22.5152 20.8861 22.2698 21.0671 22.0693 21.2913C21.52 21.882 19.976 23.3047 19.976 26.2027C19.976 29.1007 22.12 31.9016 22.4187 32.2953C22.7173 32.6891 26.6373 38.6347 32.6373 41.1862C34.0667 41.7926 35.1813 42.1548 36.048 42.4278C37.48 42.8767 38.784 42.8111 39.816 42.6615C40.9653 42.4935 43.3547 41.2387 43.8533 39.8632C44.352 38.4877 44.352 37.3091 44.2027 37.0623C44.0533 36.8156 43.6507 36.666 43.056 36.372Z" fill="white"/>
</svg>
